<svg width="285" height="48" viewBox="0 0 285 48" fill="none" xmlns="http://www.w3.org/2000/svg">
<path d="M14.8935 25.2214C15.3644 25.3391 15.6784 25.6334 15.8354 26.1044C16.0316 26.536 16.1297 26.9677 16.1297 27.3994C16.1297 27.8311 16.0904 28.2431 16.012 28.6356C15.9335 29.028 15.8354 29.4597 15.7176 29.9306C15.6392 30.4015 15.541 30.8528 15.4233 31.2845C15.3448 31.6769 15.286 31.9516 15.2467 32.1086C15.0505 32.4618 14.815 32.6972 14.5403 32.815C14.2656 32.9327 13.9713 33.0897 13.6574 33.2859C13.3434 33.4821 13.0295 33.7176 12.7155 33.9923C12.4016 34.267 12.0876 34.4239 11.7737 34.4632C11.8522 34.8164 11.8718 35.0518 11.8326 35.1696C11.8718 35.6012 11.8718 35.9348 11.8326 36.1703C11.7933 36.3665 11.7737 36.5627 11.7737 36.7589C11.6952 37.8577 11.6952 38.878 11.7737 39.8199C11.8914 40.7225 11.9503 41.6447 11.9503 42.5865C11.5186 42.822 11.1458 42.9397 10.8318 42.9397C10.6356 42.9397 10.4198 42.9201 10.1843 42.8809C9.94887 42.8416 9.73304 42.822 9.53682 42.822C9.30136 42.822 9.0659 42.8024 8.83044 42.7631C8.63422 42.7239 8.41839 42.6846 8.18293 42.6454C7.79049 42.4492 7.59428 42.3118 7.59428 42.2333C7.59428 42.1549 7.51579 42.0175 7.35882 41.8213L7.24109 38.8192V36.8766C6.80941 37.1906 6.37774 37.4653 5.94606 37.7008C5.51438 37.897 5.08271 38.152 4.65103 38.466C4.49406 38.4268 4.31746 38.4071 4.12125 38.4071C3.92503 38.4071 3.74844 38.3483 3.59146 38.2305C3.43449 37.8381 3.29714 37.6223 3.17941 37.583C3.06168 37.5438 2.96357 37.4849 2.88508 37.4064C2.8066 37.3279 2.76735 37.2298 2.76735 37.1121C2.76735 36.9551 2.72811 36.8374 2.64962 36.7589C2.17871 36.5235 1.94325 36.3272 1.94325 36.1703C1.94325 36.0133 1.92362 35.8759 1.88438 35.7582C1.64892 35.405 1.55081 35.1696 1.59006 35.0518C1.6293 34.8949 1.60968 34.7379 1.53119 34.5809C2.55152 33.7176 3.66995 32.9719 4.88649 32.344C6.10303 31.7162 7.28033 31.049 8.41839 30.3426C8.6146 30.1857 8.83044 30.0483 9.0659 29.9306C9.3406 29.8129 9.57606 29.6559 9.77228 29.4597C10.047 29.185 10.1843 28.871 10.1843 28.5178C8.81082 27.262 7.57466 26.1436 6.47584 25.1625C5.41628 24.1422 4.27822 23.1807 3.06168 22.2781C2.86546 22.1997 2.72811 22.0623 2.64962 21.8661C2.57114 21.6699 2.49265 21.5129 2.41417 21.3952C2.33568 21.2382 2.23757 21.1401 2.11984 21.1008C2.00211 21.0224 1.904 20.9439 1.82552 20.8654C1.74703 20.7477 1.66854 20.6103 1.59006 20.4533C1.55081 20.2571 1.47233 20.1198 1.3546 20.0413C1.19762 19.8843 1.00141 19.8058 0.765948 19.8058C0.569731 19.8058 0.373515 19.7273 0.177298 19.5704C0.295028 18.7855 0.530488 18.138 0.883677 17.6278C1.23687 17.0784 1.39384 16.4898 1.3546 15.8619C2.25719 15.1555 3.06168 14.4884 3.76806 13.8605C4.47444 13.1933 5.22006 12.5851 6.00493 12.0356C5.80871 11.8787 5.7106 11.7806 5.7106 11.7413C5.7106 11.6628 5.65174 11.5647 5.53401 11.447L5.47514 8.32716C5.47514 8.05245 5.45552 7.71889 5.41628 7.32645C5.41628 6.93402 5.41628 6.54159 5.41628 6.14915C5.41628 5.71748 5.41628 5.30542 5.41628 4.91299C5.45552 4.52056 5.49476 4.18699 5.53401 3.91229C5.69098 3.75531 5.76947 3.63758 5.76947 3.5591C5.80871 3.44137 5.84795 3.36288 5.8872 3.32364C5.92644 3.24515 5.9853 3.18629 6.06379 3.14704C6.18152 3.1078 6.37774 3.06856 6.65244 3.02931C6.8879 3.1078 7.10374 3.18629 7.29995 3.26477C7.57466 3.26477 7.94747 3.32364 8.41839 3.44137C8.88931 3.5591 9.18363 3.71607 9.30136 3.91229C9.45833 3.95153 9.59569 3.97115 9.71342 3.97115C9.87039 3.97115 9.98812 4.03002 10.0666 4.14775C10.0666 4.42245 10.047 4.63829 10.0077 4.79526C10.047 5.18769 10.047 5.50164 10.0077 5.7371C9.9685 5.93332 9.94887 6.14915 9.94887 6.38461C9.90963 6.93402 9.89001 7.40494 9.89001 7.79737C9.92925 8.15056 9.94887 8.54299 9.94887 8.97467C10.1058 8.8177 10.2824 8.60186 10.4787 8.32716C10.7141 8.05245 10.9496 7.77775 11.185 7.50305C11.4205 7.22834 11.656 6.99288 11.8914 6.79667C12.1269 6.56121 12.3427 6.44348 12.5389 6.44348C12.6567 6.44348 12.8136 6.52197 13.0099 6.67894C13.2061 6.83591 13.4219 7.01251 13.6574 7.20872C13.8928 7.40494 14.1479 7.58153 14.4226 7.73851C14.6973 7.89548 14.9524 7.97397 15.1879 7.97397C15.541 7.97397 15.8354 8.07208 16.0708 8.26829C16.3455 8.42526 16.6399 8.58224 16.9538 8.73921C16.9538 9.44559 16.738 10.1716 16.3063 10.9172C15.9139 11.6236 15.3841 12.0553 14.7169 12.2122C14.2853 12.7224 13.8732 13.1148 13.4808 13.3895C13.1276 13.625 12.7744 13.8997 12.4212 14.2136C12.225 14.3706 12.0484 14.5276 11.8914 14.6846C11.7737 14.8023 11.6167 14.9396 11.4205 15.0966C11.3028 15.2144 11.0084 15.4498 10.5375 15.803C10.1058 16.1169 9.63493 16.4701 9.12477 16.8626C8.65385 17.2158 8.22217 17.5689 7.82974 17.9221C7.4373 18.2361 7.24109 18.4519 7.24109 18.5697C7.24109 18.6874 7.37844 18.8051 7.65314 18.9228C7.96709 19.0013 8.16331 19.0798 8.24179 19.1583C8.67347 19.4722 9.14439 19.8843 9.65455 20.3945C10.1647 20.8654 10.6356 21.3167 11.0673 21.7484C11.6952 22.337 12.3427 22.906 13.0099 23.4554C13.7162 23.9656 14.3441 24.5543 14.8935 25.2214ZM63.2805 44.8234C63.0843 45.0196 62.8684 45.1374 62.633 45.1766C62.3975 45.2158 62.1621 45.2355 61.9266 45.2355C61.3379 45.5102 60.7101 45.6475 60.0429 45.6475C59.6112 45.4121 59.3758 45.3336 59.3365 45.4121C59.2973 45.4905 59.2188 45.569 59.1011 45.6475C58.5124 45.9222 57.9826 46.0596 57.5117 46.0596C57.0408 46.0988 56.6484 46.2165 56.3344 46.4128C56.0205 46.1773 55.8439 45.8241 55.8046 45.3532C55.8046 44.9215 55.7654 44.5487 55.6869 44.2348C55.4907 43.9601 55.3533 43.6265 55.2749 43.2341C55.1964 42.8024 55.1375 42.3707 55.0983 41.939C55.059 41.5073 55.0002 41.0953 54.9217 40.7029C54.8824 40.2712 54.7843 39.8984 54.6273 39.5844C54.5881 39.3882 54.5685 39.2116 54.5685 39.0546C54.6077 38.8977 54.5881 38.7211 54.5096 38.5249C54.5489 37.8577 54.5292 37.3279 54.4508 36.9355C54.3723 36.5431 54.2938 36.131 54.2153 35.6993C54.176 35.4639 54.1564 35.2088 54.1564 34.9341C54.1564 34.6202 54.0387 34.3847 53.8032 34.2277C53.921 33.6783 53.9406 33.2663 53.8621 32.9916C53.7836 32.7169 53.7248 32.4618 53.6855 32.2263C53.6463 31.9124 53.6266 31.5788 53.6266 31.2256C53.6266 30.8332 53.5874 30.48 53.5089 30.166C53.2735 28.2824 53.0184 26.3987 52.7437 24.515C52.469 22.6313 52.2139 20.7477 51.9784 18.864C51.743 19.0602 51.5664 19.3545 51.4486 19.747C51.3702 20.1394 51.2917 20.4926 51.2132 20.8065C50.9777 21.5129 50.7619 22.2389 50.5657 22.9845C50.3695 23.7301 50.1732 24.4561 49.977 25.1625C49.8985 25.4765 49.82 25.8493 49.7416 26.281C49.7023 26.6734 49.6238 27.0266 49.5061 27.3405C49.1137 28.4786 48.7605 29.4597 48.4465 30.2838C48.1718 31.1079 47.8971 31.9516 47.6224 32.815C47.5439 33.2859 47.4654 33.7372 47.387 34.1689C47.3085 34.6005 47.23 35.0322 47.1515 35.4639C47.1123 35.6993 47.0534 36.0329 46.9749 36.4646C46.8964 36.8963 46.8179 37.2102 46.7394 37.4064C46.661 37.6026 46.5825 37.74 46.504 37.8185C46.4647 37.897 46.4647 38.0343 46.504 38.2305C46.1116 38.8192 45.8369 39.4667 45.6799 40.1731C45.5621 40.8795 45.3267 41.5662 44.9735 42.2333C44.9735 42.7043 44.7969 43.1163 44.4437 43.4695C44.2475 43.5088 44.0513 43.548 43.8551 43.5872C43.6981 43.6265 43.5215 43.705 43.3253 43.8227C43.1291 43.7442 42.8936 43.705 42.6189 43.705C42.3834 43.6657 42.148 43.6461 41.9125 43.6461C41.7163 43.6069 41.5397 43.548 41.3827 43.4695C41.2258 43.3518 41.0492 43.2733 40.853 43.2341C40.6567 42.9986 40.4409 42.8024 40.2054 42.6454C39.97 42.4492 39.7345 42.253 39.4991 42.0568C39.2636 41.4681 39.0478 41.0757 38.8515 40.8795C38.7338 40.4478 38.5768 40.0553 38.3806 39.7022C38.1844 39.3097 38.0471 38.878 37.9686 38.4071C37.8508 37.9755 37.6939 37.583 37.4977 37.2298C37.3407 36.8374 37.1641 36.4253 36.9679 35.9937C36.8894 35.719 36.7913 35.4639 36.6735 35.2284C36.5951 34.9537 36.497 34.679 36.3792 34.4043C36.34 34.0904 36.2222 33.6979 36.026 33.227C35.8691 32.7561 35.7513 32.344 35.6728 31.9909C35.6728 31.9516 35.5944 31.7554 35.4374 31.4022C35.3197 31.0098 35.1823 30.5977 35.0253 30.166C34.9076 29.7344 34.7702 29.3419 34.6133 28.9887C34.4955 28.6356 34.4171 28.4393 34.3778 28.4001C34.2993 28.2039 34.2208 28.0273 34.1424 27.8703C34.1031 27.6741 34.0442 27.4583 33.9658 27.2228C33.8088 26.7126 33.6126 26.2025 33.3771 25.6923C33.1417 25.1429 32.9062 24.6327 32.6707 24.1618C32.4745 23.7694 32.3372 23.3966 32.2587 23.0434C32.1802 22.651 32.0821 22.2781 31.9644 21.925C31.8859 21.7287 31.8074 21.5521 31.7289 21.3952C31.6897 21.2382 31.6308 21.0616 31.5523 20.8654C31.4738 20.6299 31.3953 20.3945 31.3168 20.159C31.2384 19.8843 31.1599 19.6096 31.0814 19.3349C30.8852 19.4134 30.7871 19.59 30.7871 19.8647C30.8263 20.1001 30.8263 20.316 30.7871 20.5122C30.7086 20.9439 30.6693 21.3755 30.6693 21.8072C30.6693 22.1997 30.6497 22.6117 30.6105 23.0434C30.532 23.5143 30.4535 23.9656 30.375 24.3973C30.2965 24.829 30.2376 25.2606 30.1984 25.6923C30.1984 26.7519 30.1395 27.8114 30.0218 28.871C29.9433 29.8129 29.8452 30.7743 29.7275 31.7554C29.6098 32.6972 29.5313 33.6783 29.492 34.6986C29.492 35.4443 29.4135 36.1899 29.2566 36.9355C29.0996 37.6419 29.0604 38.3875 29.1388 39.1724C29.0604 39.3293 29.0211 39.4471 29.0211 39.5256C29.0211 39.604 29.0211 39.7218 29.0211 39.8788C29.0211 40.075 29.0015 40.2908 28.9622 40.5263C28.9622 40.7617 28.9622 40.9776 28.9622 41.1738C28.9622 41.527 29.0015 41.7624 29.08 41.8802C28.9622 42.2333 28.9034 42.6258 28.9034 43.0575C28.9034 43.4499 28.9034 43.8423 28.9034 44.2348C28.8249 44.3917 28.766 44.5487 28.7268 44.7057C28.7268 44.8626 28.6679 45.0196 28.5502 45.1766C28.5894 45.8437 28.3932 46.1773 27.9615 46.1773C27.8438 46.1773 27.7065 46.1381 27.5495 46.0596C27.4318 46.0203 27.3336 45.9418 27.2552 45.8241C26.8235 45.8634 26.5684 45.7652 26.4899 45.5298C26.4507 45.2943 26.3329 45.1962 26.1367 45.2355C25.6658 45.4317 25.3911 45.4905 25.3126 45.4121C25.2734 45.3336 25.1556 45.3139 24.9594 45.3532C24.6455 45.0392 24.4296 44.9019 24.3119 44.9411C24.2334 44.9804 24.1549 45 24.0765 45C23.7233 44.8823 23.527 44.8626 23.4878 44.9411C23.4486 44.9804 23.3701 45 23.2523 45C23.0561 44.8038 22.7814 44.7057 22.4282 44.7057C22.1143 44.7057 21.8396 44.6861 21.6041 44.6468C21.5649 44.4898 21.5256 44.3525 21.4864 44.2348C21.4864 44.0778 21.4864 43.9012 21.4864 43.705C21.4864 43.4695 21.4864 43.2537 21.4864 43.0575C21.5256 42.822 21.5453 42.5865 21.5453 42.3511C21.5453 42.1549 21.5256 41.9586 21.4864 41.7624C21.4864 41.527 21.4864 41.2719 21.4864 40.9972C21.4864 40.7225 21.506 40.4674 21.5453 40.2319C21.5845 39.9572 21.6041 39.6629 21.6041 39.349C21.6041 39.2312 21.5845 39.1331 21.5453 39.0546C21.506 38.9369 21.4864 38.7996 21.4864 38.6426C21.7219 38.1324 21.82 37.74 21.7807 37.4653C21.7807 37.1513 21.8003 36.857 21.8396 36.5823C21.9181 35.9152 21.9769 35.2677 22.0162 34.6398C22.0947 33.9726 22.1732 33.3055 22.2516 32.6384C22.2516 31.5396 22.2713 30.637 22.3105 29.9306C22.389 29.185 22.4871 28.4393 22.6048 27.6937C22.6833 27.3405 22.7422 27.007 22.7814 26.693C22.8599 26.3791 22.9384 26.0455 23.0169 25.6923C23.0954 25.1037 23.1346 24.4954 23.1346 23.8675C23.1739 23.2004 23.2327 22.5528 23.3112 21.925C23.3897 20.9439 23.4878 19.9824 23.6055 19.0406C23.7233 18.0595 23.8214 17.098 23.8999 16.1562C23.9783 15.4106 24.0568 14.6846 24.1353 13.9782C24.253 13.2326 24.3119 12.5262 24.3119 11.8591C24.3119 11.5059 24.3512 11.0546 24.4296 10.5052C24.5474 9.95575 24.6259 9.48483 24.6651 9.0924C24.7436 8.15056 24.8025 7.22834 24.8417 6.32575C24.9202 5.42315 24.9594 4.52056 24.9594 3.61796V2.97045C24.9594 2.89196 24.9987 2.81348 25.0772 2.73499C25.1556 2.6565 25.1949 2.51915 25.1949 2.32293C25.1949 1.96975 25.2734 1.73429 25.4303 1.61656C25.6266 1.45958 25.7835 1.22412 25.9013 0.910177C26.0975 0.910177 26.3133 0.929798 26.5488 0.969042C26.8235 1.00828 27.0197 1.12601 27.1374 1.32223C27.4121 1.24374 27.6868 1.2045 27.9615 1.2045C28.2362 1.2045 28.4717 1.10639 28.6679 0.910177C28.9034 0.910177 29.08 0.969042 29.1977 1.08677C29.3154 1.2045 29.4724 1.30261 29.6686 1.3811C29.8256 1.30261 29.9826 1.24374 30.1395 1.2045C30.2965 1.12601 30.4535 1.04753 30.6105 0.969042C30.7282 1.04753 30.8067 1.14564 30.8459 1.26337C30.9244 1.34185 31.0225 1.40072 31.1402 1.43996C31.7289 1.28299 32.1213 1.26337 32.3175 1.3811C32.396 1.53807 32.4353 1.69504 32.4353 1.85202C32.4745 2.00899 32.5138 2.16596 32.553 2.32293C32.9454 2.71537 33.2005 3.16667 33.3182 3.67683C33.436 4.14775 33.6518 4.57942 33.9658 4.97186C34.0442 5.20732 34.1227 5.44278 34.2012 5.67824C34.319 5.91369 34.4171 6.1884 34.4955 6.50234L34.6721 7.20872C34.8291 7.60116 35.0253 8.07208 35.2608 8.62148C35.457 9.3671 35.6336 10.1323 35.7906 10.9172C35.9475 11.7021 36.2026 12.4281 36.5558 13.0952C36.5951 13.3307 36.6539 13.625 36.7324 13.9782C36.8501 14.2921 36.9483 14.5668 37.0267 14.8023C37.3014 15.4694 37.5761 16.1366 37.8508 16.8037C38.1648 17.4316 38.4395 18.1184 38.675 18.864C38.9104 19.6096 39.1066 20.3748 39.2636 21.1597C39.4598 21.9446 39.6953 22.7098 39.97 23.4554C40.2054 24.1618 40.382 24.672 40.4998 24.9859C40.6175 25.2999 40.7745 25.6138 40.9707 25.9278C40.9707 26.0455 40.9903 26.2417 41.0296 26.5164C41.108 26.7911 41.2061 27.0854 41.3239 27.3994C41.4416 27.6741 41.5593 27.9488 41.6771 28.2235C41.7948 28.459 41.9125 28.5963 42.0303 28.6356C42.148 28.5571 42.2068 28.4393 42.2068 28.2824C42.2461 28.1254 42.3246 27.988 42.4423 27.8703C42.4816 27.4386 42.5404 26.9088 42.6189 26.281C42.7366 25.6531 42.8936 25.1429 43.0898 24.7505C43.0898 24.5543 43.1291 24.2011 43.2076 23.6909C43.3253 23.1415 43.4626 22.5725 43.6196 21.9838C43.7766 21.3559 43.9139 20.7869 44.0317 20.2767C44.1886 19.7666 44.326 19.4526 44.4437 19.3349C44.5222 18.8247 44.5811 18.5108 44.6203 18.3931C44.6988 18.2753 44.7773 18.1772 44.8558 18.0987C44.895 17.7848 44.9735 17.4905 45.0912 17.2158C45.209 16.9411 45.2874 16.6467 45.3267 16.3328C45.4052 15.6656 45.5033 15.1162 45.621 14.6846C45.7387 14.2529 45.8957 13.7231 46.0919 13.0952C46.2489 12.5458 46.3863 11.9964 46.504 11.447C46.661 10.8583 46.8376 10.2893 47.0338 9.73991C47.5047 8.24867 47.9167 6.93402 48.2699 5.79596C48.6624 4.61867 49.1333 3.48061 49.6827 2.3818C49.8004 2.02861 49.8985 1.81277 49.977 1.73429C50.0555 1.6558 50.134 1.57731 50.2125 1.49883C50.5264 1.3811 50.8404 1.32223 51.1543 1.32223C51.5075 1.32223 51.8607 1.34185 52.2139 1.3811C52.6063 1.22412 52.9006 1.04753 53.0969 0.851312C53.2538 1.04753 53.4893 1.14564 53.8032 1.14564C54.1957 1.14564 54.4704 1.02791 54.6273 0.792447C54.7843 0.870933 54.902 0.890555 54.9805 0.851312C55.0983 0.812069 55.2552 0.83169 55.4515 0.910177C55.5299 0.83169 55.6281 0.753204 55.7458 0.674717C55.8635 0.556987 55.9812 0.498122 56.099 0.498122C56.4129 0.890555 56.6484 1.2045 56.8053 1.43996C57.0016 1.63618 57.1389 1.87164 57.2174 2.14634C57.3351 2.49953 57.394 2.89196 57.394 3.32364C57.4332 3.71607 57.551 4.08888 57.7472 4.44207C57.7079 4.95223 57.7276 5.7371 57.8061 6.79667C57.9238 7.81699 58.0415 8.91581 58.1592 10.0931C58.3162 11.2312 58.4732 12.2907 58.6302 13.2718C58.7871 14.2529 58.9245 14.8612 59.0422 15.0966C59.003 15.6068 59.0226 16.0385 59.1011 16.3917C59.1796 16.7448 59.2188 17.098 59.2188 17.4512C59.2188 17.5689 59.2384 17.824 59.2777 18.2165C59.3169 18.5697 59.3562 18.9621 59.3954 19.3938C59.4346 19.7862 59.4739 20.1786 59.5131 20.5711C59.5916 20.9242 59.6505 21.1793 59.6897 21.3363C59.6897 22.0427 59.8075 22.5921 60.0429 22.9845C60.2391 23.9656 60.3961 24.9467 60.5138 25.9278C60.6708 26.9088 60.8082 27.9096 60.9259 28.9299C61.0044 29.44 61.0436 29.9306 61.0436 30.4015C61.0829 30.8724 61.1417 31.363 61.2202 31.8731C61.2595 32.0693 61.2987 32.2656 61.3379 32.4618C61.4164 32.658 61.4753 32.8542 61.5145 33.0504C61.593 33.4429 61.6519 33.8157 61.6911 34.1689C61.7304 34.522 61.7892 34.8752 61.8677 35.2284C61.907 35.4246 61.9658 35.6405 62.0443 35.8759C62.1228 36.0722 62.1228 36.288 62.0443 36.5235C62.1228 36.7982 62.1424 37.0925 62.1032 37.4064C62.1032 37.7204 62.1817 37.9951 62.3387 38.2305C62.3387 39.0546 62.3975 39.7806 62.5152 40.4085C62.5545 40.8795 62.6722 41.3504 62.8684 41.8213C62.9469 42.2922 63.0058 42.7828 63.045 43.2929C63.1235 43.8031 63.202 44.3132 63.2805 44.8234ZM70.6386 44.0582C70.5209 44.1366 70.4031 44.2151 70.2854 44.2936C70.1677 44.3721 70.05 44.4506 69.9322 44.5291C69.5006 44.7645 69.1081 44.9019 68.7549 44.9411C68.4017 44.9411 68.0093 45.1374 67.5776 45.5298C67.4207 45.3336 67.3029 45.2355 67.2244 45.2355C67.146 45.2355 67.0086 45.2355 66.8124 45.2355C66.3022 45.2355 66.0079 45.0981 65.9294 44.8234C65.7724 44.8626 65.5174 44.9608 65.1642 45.1177C64.8502 45.2747 64.6148 45.3924 64.4578 45.4709C64.811 44.9608 65.0464 44.5683 65.1642 44.2936C65.2819 44.0189 65.3408 43.7638 65.3408 43.5284C65.38 43.2929 65.3996 43.0575 65.3996 42.822C65.4389 42.5473 65.537 42.1745 65.694 41.7036C65.7724 41.5466 65.8313 41.3896 65.8705 41.2326C65.9098 41.0757 65.9687 40.8991 66.0471 40.7029C66.2434 40.1142 66.4003 39.4471 66.5181 38.7015C66.675 37.9558 66.9105 37.3083 67.2244 36.7589C67.2244 36.0918 67.3618 35.4639 67.6365 34.8752C67.9504 34.2866 68.2055 33.6783 68.4017 33.0504C68.4802 32.815 68.5783 32.5795 68.6961 32.344C68.853 32.1086 68.9708 31.8731 69.0493 31.6377C69.2062 31.2452 69.324 30.8724 69.4024 30.5192C69.5202 30.1268 69.6379 29.754 69.7556 29.4008C70.0696 28.2627 70.3835 27.1443 70.6975 26.0455C71.0114 24.9074 71.3057 23.7694 71.5804 22.6313C71.6197 22.4351 71.6589 22.2193 71.6982 21.9838C71.7767 21.7484 71.8551 21.5325 71.9336 21.3363C72.1299 20.7477 72.2476 20.159 72.2868 19.5704C72.3653 18.9425 72.5615 18.3538 72.8755 17.8044C72.8362 17.5297 72.8362 17.2746 72.8755 17.0392C72.954 16.8037 73.0324 16.5486 73.1109 16.2739C73.1894 15.9992 73.2679 15.7441 73.3464 15.5087C73.4249 15.2732 73.4837 15.0966 73.523 14.9789C73.7192 14.4687 73.8566 14.0174 73.935 13.625C74.0528 13.1933 74.2686 12.742 74.5826 12.2711C74.5826 12.2711 74.6414 12.0749 74.7592 11.6825C74.8769 11.2508 75.0142 10.7799 75.1712 10.2697C75.3282 9.75954 75.4655 9.28862 75.5833 8.85694C75.701 8.38602 75.7599 8.11132 75.7599 8.03283C75.8383 7.71889 75.8972 7.42456 75.9364 7.14986C76.0149 6.87516 76.0934 6.58083 76.1719 6.26688C76.2504 6.07067 76.3289 5.91369 76.4074 5.79596C76.4859 5.63899 76.5643 5.4624 76.6428 5.26618C76.7606 4.8345 76.8783 4.30472 76.996 3.67683C77.1137 3.04894 77.2707 2.55839 77.4669 2.2052C77.5847 1.9305 77.8005 1.71466 78.1145 1.55769C78.4676 1.36147 78.762 1.16526 78.9974 0.969042C79.7038 1.04753 80.214 1.00828 80.5279 0.851312C80.8811 0.694339 81.2147 0.498122 81.5286 0.262663C81.7248 0.301906 81.9014 0.360771 82.0584 0.439257C82.2546 0.478501 82.4508 0.498122 82.6471 0.498122C83.3927 1.32223 83.9028 2.16596 84.1775 3.02931C84.4915 3.89267 84.7858 4.75602 85.0605 5.61937C85.1782 6.05105 85.296 6.48272 85.4137 6.9144C85.5314 7.30683 85.6688 7.69926 85.8258 8.0917C85.865 8.20943 85.9239 8.34678 86.0024 8.50375C86.0808 8.62148 86.1593 8.75883 86.2378 8.91581C86.434 9.22975 86.591 9.56332 86.7087 9.91651C86.8657 10.2697 87.0031 10.6229 87.1208 10.9761C87.3562 11.2508 87.5328 11.5843 87.6506 11.9768C87.7683 12.33 87.8664 12.7028 87.9449 13.0952C88.0626 13.4484 88.1804 13.8016 88.2981 14.1548C88.4158 14.4687 88.5924 14.7434 88.8279 14.9789C88.9064 15.4106 89.0437 15.8422 89.2399 16.2739C89.4361 16.6664 89.5735 17.098 89.652 17.5689C89.8874 17.8829 90.1621 18.4912 90.4761 19.3938C90.79 20.2571 91.104 21.199 91.4179 22.2193C91.7319 23.2396 92.0262 24.2207 92.3009 25.1625C92.5756 26.1044 92.7718 26.7715 92.8895 27.1639C92.968 27.4779 93.125 27.8899 93.3605 28.4001C93.5959 28.871 93.8118 29.3027 94.008 29.6951C94.165 30.1268 94.3219 30.5781 94.4789 31.049C94.6751 31.5199 94.8321 31.9712 94.9498 32.4029C95.0283 32.8346 95.1068 33.2466 95.1853 33.6391C95.303 34.0315 95.4207 34.4436 95.5385 34.8752C95.617 35.1499 95.7347 35.405 95.8917 35.6405C96.0486 35.8367 96.1664 36.0918 96.2448 36.4057C96.4018 36.7197 96.4999 37.014 96.5392 37.2887C96.6177 37.5634 96.755 37.8577 96.9512 38.1717C96.912 38.6033 96.9316 38.878 97.0101 38.9958C97.0886 39.1135 97.1671 39.2509 97.2456 39.4078C97.4025 40.2319 97.5791 40.8991 97.7753 41.4092C97.9716 41.8802 98.0697 42.3903 98.0697 42.9397C98.0697 43.4106 97.9716 43.705 97.7753 43.8227C97.6184 43.9404 97.4025 44.1366 97.1278 44.4114C96.8139 44.6861 96.5392 44.9019 96.3037 45.0589C96.1075 45.2158 95.7935 45.2943 95.3619 45.2943C94.891 45.2551 94.5966 45.3139 94.4789 45.4709C94.4004 45.6671 94.3415 45.8045 94.3023 45.883C93.8314 45.8437 93.5174 45.8241 93.3605 45.8241C93.2427 45.8634 93.1054 45.883 92.9484 45.883C92.8307 45.883 92.6933 45.9026 92.5364 45.9418C92.4186 46.0203 92.2813 46.1577 92.1243 46.3539C91.8496 46.0399 91.5749 45.7456 91.3002 45.4709C91.0647 45.2355 90.8489 44.9608 90.6527 44.6468C90.6527 43.9797 90.5546 43.1948 90.3584 42.2922C90.2014 41.3896 90.0248 40.6832 89.8286 40.1731C89.4361 39.1528 89.0633 38.152 88.7101 37.171C88.3962 36.1899 88.0822 35.1892 87.7683 34.1689C87.6506 33.7372 87.5132 33.3447 87.3562 32.9916C87.2385 32.6384 87.1012 32.2656 86.9442 31.8731C87.0227 32.1871 87.0423 32.5206 87.0031 32.8738C87.0031 33.1878 86.9049 33.5017 86.7087 33.8157C86.6302 33.8942 86.5125 33.9923 86.3555 34.11C86.1986 34.2277 86.1201 34.3258 86.1201 34.4043C85.6492 34.7967 85.2371 35.1696 84.8839 35.5227C84.9232 36.2291 84.8251 36.7197 84.5896 36.9944C84.3541 37.2691 84.0991 37.5242 83.8243 37.7596C83.1572 37.7989 82.7452 37.7596 82.5882 37.6419C82.4312 37.5242 82.2154 37.4457 81.9407 37.4064C81.7837 37.3672 81.6267 37.3672 81.4698 37.4064C81.3128 37.4064 81.1558 37.4064 80.9988 37.4064C80.6849 37.4064 80.3906 37.3279 80.1159 37.171C79.9981 37.0925 79.9 37.014 79.8215 36.9355C79.7823 36.857 79.7234 36.7785 79.6449 36.7C79.331 36.3861 78.9582 36.131 78.5265 35.9348C78.1341 35.6993 77.7416 35.5031 77.3492 35.3462C77.0353 35.0715 76.7017 34.7967 76.3485 34.522C76.0346 34.2081 75.701 33.953 75.3478 33.7568C75.0339 34.5024 74.7788 35.1696 74.5826 35.7582C74.4256 36.3076 74.2294 36.857 73.9939 37.4064C73.5622 38.7407 73.209 39.918 72.9343 40.9383C72.6596 41.9194 72.3457 42.9201 71.9925 43.9404C71.8355 43.9797 71.6786 44.0385 71.5216 44.117C71.4039 44.1955 71.2469 44.2348 71.0507 44.2348L70.6386 44.0582ZM76.4074 31.5199C76.7213 30.9705 76.996 30.6762 77.2315 30.637C77.5062 30.5585 77.7416 30.4015 77.9379 30.166C78.0163 30.0876 78.0948 29.9894 78.1733 29.8717C78.291 29.754 78.4088 29.6363 78.5265 29.5185C78.6442 29.44 78.7816 29.3616 78.9386 29.2831C79.0955 29.2046 79.2329 29.1065 79.3506 28.9887C79.6646 28.714 79.9196 28.4786 80.1159 28.2824C80.3513 28.0861 80.6849 27.988 81.1166 27.988C81.7837 27.988 82.3331 28.1646 82.7648 28.5178C83.1965 28.8318 83.7262 29.0476 84.3541 29.1653C84.4326 29.4008 84.6877 29.5774 85.1194 29.6951C85.5511 29.7736 85.8846 29.8913 86.1201 30.0483C85.7276 29.0672 85.4137 28.0861 85.1782 27.1051C84.982 26.0847 84.7269 25.084 84.413 24.103C84.1775 23.2396 83.9028 22.3959 83.5889 21.5718C83.2749 20.7084 82.961 19.8843 82.6471 19.0994C82.3723 18.3146 82.1369 17.5493 81.9407 16.8037C81.7445 16.0581 81.4894 15.3321 81.1754 14.6257C80.8615 15.3321 80.5475 16.1954 80.2336 17.2158C79.9196 18.2361 79.6842 19.1387 79.5272 19.9235C79.5272 20.2767 79.5076 20.5514 79.4683 20.7477C79.3899 21.0224 79.3114 21.2774 79.2329 21.5129C79.1544 21.7091 79.0759 21.925 78.9974 22.1604C78.4873 23.6909 78.0163 25.241 77.5847 26.8107C77.1922 28.3805 76.7213 29.9502 76.1719 31.5199H76.4074ZM127.149 16.6271C126.796 17.3727 126.305 18.0791 125.677 18.7462C125.089 19.4134 124.52 20.0413 123.97 20.6299C123.539 21.0616 123.166 21.5325 122.852 22.0427C122.538 22.5528 122.185 23.0238 121.792 23.4554C121.478 23.8086 121.164 24.1422 120.85 24.4561C120.536 24.7308 120.242 25.0448 119.967 25.398C119.771 25.555 119.575 25.7119 119.379 25.8689C119.222 26.0259 119.065 26.2221 118.908 26.4576C119.496 27.7133 120.183 28.8514 120.968 29.8717C121.792 30.892 122.636 31.9124 123.499 32.9327C123.931 33.4429 124.363 33.9334 124.794 34.4043C125.226 34.836 125.599 35.3069 125.913 35.8171C126.187 36.4057 126.462 36.857 126.737 37.171C127.051 37.4457 127.326 37.74 127.561 38.0539C127.796 38.4464 127.993 38.7996 128.15 39.1135C128.346 39.3882 128.601 39.6629 128.915 39.9376C128.915 40.1338 129.033 40.33 129.268 40.5263C129.504 40.6832 129.66 40.8598 129.739 41.0561C129.739 41.2523 129.739 41.4092 129.739 41.527C129.778 41.6447 129.798 41.7428 129.798 41.8213C129.68 42.1352 129.464 42.4099 129.15 42.6454C128.876 42.8416 128.621 43.0575 128.385 43.2929C127.993 43.2929 127.659 43.4106 127.384 43.6461C127.11 43.8816 126.737 43.9993 126.266 43.9993C126.07 44.1563 125.913 44.3329 125.795 44.5291C125.677 44.6861 125.52 44.843 125.324 45C125.01 45 124.716 45.0785 124.441 45.2355C124.206 45.4317 123.931 45.569 123.617 45.6475C123.225 45.4121 122.911 45.1177 122.675 44.7645C122.44 44.3721 122.126 44.0778 121.733 43.8816C121.694 43.6854 121.616 43.5284 121.498 43.4106C121.419 43.2537 121.341 43.0967 121.262 42.9397C120.595 42.1941 119.967 41.4092 119.379 40.5851C118.79 39.761 118.201 38.9369 117.613 38.1128C117.299 37.7596 116.965 37.426 116.612 37.1121C116.298 36.7589 115.984 36.3861 115.67 35.9937C115.474 35.7582 115.278 35.4835 115.082 35.1696C114.885 34.8556 114.67 34.5613 114.434 34.2866C114.159 34.0511 113.924 33.7764 113.728 33.4625C113.532 33.1485 113.296 32.8934 113.021 32.6972C112.668 32.8934 112.354 33.1485 112.08 33.4625C111.805 33.7764 111.491 34.0511 111.138 34.2866C110.824 34.5613 110.51 34.836 110.196 35.1107C109.921 35.3854 109.627 35.6405 109.313 35.8759C109.234 36.7785 109.195 37.6615 109.195 38.5249C109.195 39.349 109.195 40.1731 109.195 40.9972C109.195 41.6643 109.176 42.3118 109.136 42.9397C109.136 43.5284 109.058 44.1366 108.901 44.7645C108.705 44.8038 108.508 44.7057 108.312 44.4702C108.155 44.1955 107.979 44.0385 107.782 43.9993C107.625 44.0385 107.488 44.117 107.37 44.2348C107.292 44.3525 107.154 44.3721 106.958 44.2936C106.762 44.4898 106.468 44.6664 106.075 44.8234C105.879 44.8234 105.663 44.8626 105.428 44.9411C105.192 44.9804 104.976 45 104.78 45C104.466 45 104.25 44.9608 104.133 44.8823C103.74 45.157 103.407 45.2943 103.132 45.2943C102.897 45.3336 102.7 45.3532 102.543 45.3532C102.465 45.0785 102.386 44.8234 102.308 44.5879C102.229 44.3132 102.171 44.0189 102.131 43.705C102.014 43.548 101.915 43.3714 101.837 43.1752C101.798 42.979 101.739 42.7828 101.66 42.5865C101.7 42.4688 101.719 42.3315 101.719 42.1745C101.719 42.0175 101.719 41.8605 101.719 41.7036C101.719 41.0364 101.7 40.3889 101.66 39.761C101.621 39.1331 101.641 38.4856 101.719 37.8185C101.641 37.6223 101.582 37.426 101.543 37.2298C101.503 37.0336 101.484 36.8374 101.484 36.6412C101.484 36.5235 101.484 36.3861 101.484 36.2291C101.523 36.0722 101.582 35.9544 101.66 35.8759C101.543 35.3658 101.464 34.836 101.425 34.2866C101.425 33.6979 101.425 33.1485 101.425 32.6384C101.425 32.3637 101.445 32.089 101.484 31.8143C101.562 31.5003 101.602 31.1864 101.602 30.8724C101.602 30.2053 101.562 29.5578 101.484 28.9299C101.405 28.302 101.366 27.6741 101.366 27.0462C101.405 26.6145 101.425 26.281 101.425 26.0455C101.425 25.81 101.445 25.5746 101.484 25.3391C101.523 25.1037 101.503 24.8682 101.425 24.6327C101.464 24.4365 101.503 24.2992 101.543 24.2207C101.621 24.103 101.66 23.946 101.66 23.7498C101.66 23.2396 101.66 22.7491 101.66 22.2781C101.7 21.768 101.719 21.2382 101.719 20.6888C101.719 20.2964 101.719 19.9235 101.719 19.5704C101.759 19.1779 101.778 18.7659 101.778 18.3342C101.778 17.981 101.798 17.6474 101.837 17.3335C101.915 17.0195 101.974 16.7056 102.014 16.3917C102.053 16.0385 102.072 15.7049 102.072 15.3909C102.072 15.0378 102.072 14.7042 102.072 14.3902C102.072 13.5661 102.072 12.742 102.072 11.9179C102.072 11.0546 102.033 10.2108 101.955 9.38672C101.915 9.19051 101.876 8.97467 101.837 8.73921C101.798 8.50375 101.778 8.26829 101.778 8.03283C101.7 7.28721 101.641 6.52197 101.602 5.7371C101.562 4.95223 101.484 4.16737 101.366 3.3825C101.445 3.26477 101.484 3.14704 101.484 3.02931C101.484 2.87234 101.484 2.73499 101.484 2.61726C101.484 2.42104 101.484 2.24445 101.484 2.08748C101.484 1.89126 101.464 1.69504 101.425 1.49883C101.503 1.42034 101.582 1.34185 101.66 1.26337C101.739 1.14564 101.817 1.04753 101.896 0.969042C102.131 0.969042 102.367 0.988663 102.602 1.02791C102.877 1.02791 103.112 1.10639 103.309 1.26337C103.505 1.18488 103.721 1.10639 103.956 1.02791C104.231 0.910177 104.466 0.851312 104.663 0.851312C104.976 0.851312 105.212 0.929798 105.369 1.08677C105.565 1.00828 105.663 0.929798 105.663 0.851312C105.702 0.733582 105.859 0.674717 106.134 0.674717C106.644 0.635474 106.998 0.615852 107.194 0.615852C107.429 0.615852 107.645 0.59623 107.841 0.556987C107.959 0.635474 108.057 0.733582 108.136 0.851312C108.214 0.969042 108.293 1.08677 108.371 1.2045C109.234 1.51845 109.921 1.96975 110.431 2.55839C110.981 3.1078 111.589 3.57872 112.256 3.97115C112.413 4.08888 112.57 4.18699 112.727 4.26548C112.884 4.34396 113.041 4.42245 113.198 4.50094C113.551 4.7364 113.904 4.99148 114.258 5.26618C114.611 5.54088 114.984 5.77634 115.376 5.97256C115.768 6.16878 115.984 6.28651 116.023 6.32575C116.102 6.32575 116.161 6.36499 116.2 6.44348C117.063 6.75743 117.829 7.1891 118.496 7.73851C119.202 8.24867 119.948 8.71959 120.733 9.15127C121.007 9.30824 121.341 9.46521 121.733 9.62218C122.165 9.77916 122.577 9.95575 122.97 10.152C123.401 10.3089 123.794 10.4855 124.147 10.6818C124.539 10.878 124.834 11.0938 125.03 11.3293C125.461 11.7609 125.834 12.0749 126.148 12.2711C126.501 12.4281 126.835 12.6243 127.149 12.8598L127.208 14.4491C127.208 14.7238 127.169 14.9789 127.09 15.2144C127.051 15.4498 127.031 15.7049 127.031 15.9796C127.031 16.1758 127.07 16.3917 127.149 16.6271ZM119.084 15.0966C118.653 14.8612 118.221 14.6453 117.789 14.4491C117.358 14.2136 116.985 13.8997 116.671 13.5073C116.396 13.4288 115.906 13.2522 115.199 12.9775C114.493 12.6635 113.767 12.3496 113.021 12.0356C112.315 11.6825 111.648 11.3881 111.02 11.1527C110.431 10.878 110.098 10.7406 110.019 10.7406C109.902 10.7799 109.843 11.0349 109.843 11.5059C109.843 11.9768 109.843 12.4869 109.843 13.0363C109.843 13.5858 109.843 14.1155 109.843 14.6257C109.843 15.1359 109.843 15.4498 109.843 15.5675C109.843 16.3132 109.823 17.0392 109.784 17.7455C109.745 18.4519 109.686 19.1779 109.607 19.9235C109.529 20.0413 109.47 20.159 109.431 20.2767C109.391 20.3552 109.352 20.4533 109.313 20.5711C109.234 21.1205 109.195 21.8465 109.195 22.7491C109.195 23.6517 109.195 24.3777 109.195 24.9271C109.195 25.2018 109.195 25.4568 109.195 25.6923C109.195 25.9278 109.215 26.2025 109.254 26.5164C109.45 26.5164 109.588 26.4772 109.666 26.3987C109.745 26.281 109.882 26.1828 110.078 26.1044C110.588 25.555 111.098 25.0252 111.609 24.515C112.119 24.0048 112.649 23.4751 113.198 22.9257C113.433 22.6902 113.669 22.4351 113.904 22.1604C114.14 21.8857 114.395 21.6502 114.67 21.454C114.866 21.2186 115.042 21.0027 115.199 20.8065C115.356 20.5711 115.533 20.3552 115.729 20.159C116.279 19.5704 116.848 19.0013 117.436 18.4519C118.025 17.8633 118.515 17.2158 118.908 16.5094C119.183 16.3132 119.438 15.9992 119.673 15.5675C119.398 15.5283 119.202 15.3713 119.084 15.0966ZM157.229 37.9362C156.836 37.9755 156.601 37.9558 156.523 37.8773C156.366 37.9558 156.209 38.0343 156.052 38.1128C155.934 38.1913 155.797 38.2894 155.64 38.4071C155.09 38.6033 154.541 38.8584 153.991 39.1724C153.481 39.4863 152.951 39.7806 152.402 40.0553C152.088 40.2123 151.774 40.3497 151.46 40.4674C151.185 40.5459 150.891 40.6636 150.577 40.8206C150.106 41.0561 149.635 41.3111 149.164 41.5858C148.693 41.8213 148.203 42.0371 147.693 42.2333C147.418 42.3118 147.143 42.3903 146.869 42.4688C146.633 42.5473 146.378 42.6258 146.103 42.7043C145.789 42.822 145.495 42.9593 145.22 43.1163C144.985 43.2341 144.73 43.3518 144.455 43.4695C144.259 43.548 144.043 43.6265 143.808 43.705C143.611 43.7442 143.396 43.8227 143.16 43.9404C142.964 44.0189 142.787 44.117 142.63 44.2348C142.513 44.3525 142.356 44.4506 142.159 44.5291C141.846 44.6468 141.512 44.7645 141.159 44.8823C140.845 45 140.531 45.1374 140.217 45.2943C139.903 45.4513 139.668 45.5886 139.511 45.7064C139.393 45.8634 139.138 46.0007 138.745 46.1184C138.353 46.3539 138.137 46.4716 138.098 46.4716C138.059 46.5109 138 46.5305 137.921 46.5305C137.803 46.609 137.686 46.6678 137.568 46.7071C137.49 46.7856 137.391 46.8641 137.274 46.9425C137.038 46.9425 136.803 46.9622 136.567 47.0014C136.332 47.0407 136.096 47.0603 135.861 47.0603C135.586 46.9033 135.39 46.7463 135.272 46.5894C135.194 46.4324 135.155 46.2165 135.155 45.9418C134.998 45.7456 134.841 45.5298 134.684 45.2943C134.566 45.0589 134.429 44.843 134.272 44.6468C133.997 44.8038 133.82 44.8038 133.742 44.6468C133.703 44.4506 133.663 44.2544 133.624 44.0582C133.585 43.8227 133.546 43.6069 133.506 43.4106C133.467 43.1752 133.428 43.0182 133.389 42.9397C133.192 42.1941 133.094 41.6447 133.094 41.2915C133.094 41.0953 133.134 40.9776 133.212 40.9383C133.291 40.8598 133.33 40.7617 133.33 40.644C133.369 40.2516 133.408 39.8003 133.447 39.2901C133.487 38.7799 133.506 38.2502 133.506 37.7008C133.506 37.1513 133.506 36.6019 133.506 36.0525C133.506 35.5031 133.506 35.0126 133.506 34.5809C133.506 32.815 133.487 31.1079 133.447 29.4597C133.408 27.7722 133.389 26.0847 133.389 24.3973C133.389 23.6124 133.408 22.8275 133.447 22.0427C133.487 21.2578 133.506 20.473 133.506 19.6881C133.506 17.7652 133.526 15.8619 133.565 13.9782C133.644 12.0945 133.683 10.1912 133.683 8.26829C133.683 7.48343 133.644 6.69856 133.565 5.91369C133.487 5.08959 133.428 4.26548 133.389 3.44137C133.349 3.00969 133.369 2.67612 133.447 2.44066C133.526 2.16596 133.546 1.89126 133.506 1.61656C133.624 1.57731 133.84 1.55769 134.154 1.55769C134.468 1.55769 134.782 1.55769 135.096 1.55769C135.449 1.51845 135.763 1.49883 136.038 1.49883C136.351 1.45958 136.548 1.42034 136.626 1.3811C136.901 1.57731 137.176 1.67542 137.45 1.67542C137.725 1.67542 137.98 1.55769 138.216 1.32223C138.412 1.40072 138.51 1.45958 138.51 1.49883C138.549 1.53807 138.667 1.55769 138.863 1.55769C139.216 1.51845 139.491 1.49883 139.687 1.49883C139.883 1.45958 140.06 1.43996 140.217 1.43996C140.649 1.75391 140.904 2.14634 140.982 2.61726C141.1 3.04894 141.178 3.51985 141.218 4.03002C141.257 4.50094 141.277 4.99148 141.277 5.50164C141.316 5.97256 141.335 6.36499 141.335 6.67894C141.335 6.9144 141.355 7.16948 141.394 7.44418C141.433 7.67964 141.453 7.93472 141.453 8.20943C141.453 8.40564 141.433 8.60186 141.394 8.79808C141.394 8.99429 141.394 9.19051 141.394 9.38672C141.394 10.5248 141.394 11.6825 141.394 12.8598C141.433 14.0371 141.453 15.1947 141.453 16.3328C141.453 18.3734 141.414 20.4337 141.335 22.5136C141.296 24.5543 141.277 26.5949 141.277 28.6356C141.277 29.0672 141.296 29.4989 141.335 29.9306C141.375 30.3623 141.394 30.7939 141.394 31.2256C141.394 31.4611 141.375 31.6965 141.335 31.932C141.335 32.1674 141.335 32.4029 141.335 32.6384C141.335 34.0904 141.394 35.5424 141.512 36.9944C141.669 36.9551 142.003 36.857 142.513 36.7C143.023 36.5038 143.553 36.3076 144.102 36.1114C144.651 35.8759 145.162 35.6601 145.633 35.4639C146.103 35.2284 146.398 35.0518 146.515 34.9341C146.672 34.9341 146.888 34.8752 147.163 34.7575C147.438 34.6398 147.732 34.5024 148.046 34.3454C148.36 34.1492 148.654 33.9726 148.929 33.8157C149.243 33.6587 149.459 33.5213 149.576 33.4036C149.537 32.6187 149.518 31.8339 149.518 31.049C149.518 30.2249 149.518 29.4204 149.518 28.6356C149.518 26.4772 149.537 24.3188 149.576 22.1604C149.655 20.002 149.694 17.8044 149.694 15.5675C149.694 14.194 149.675 12.8205 149.635 11.447C149.596 10.0735 149.576 8.69997 149.576 7.32645C149.576 6.89478 149.576 6.4631 149.576 6.03142C149.616 5.56051 149.635 5.10921 149.635 4.67753C149.635 4.0104 149.616 3.36288 149.576 2.73499C149.576 2.06785 149.616 1.40072 149.694 0.733582C150.087 0.537366 150.302 0.439257 150.342 0.439257C150.577 0.439257 150.734 0.439257 150.813 0.439257C150.93 0.439257 151.028 0.478501 151.107 0.556987C151.225 0.59623 151.323 0.615852 151.401 0.615852C151.519 0.576609 151.637 0.556987 151.754 0.556987C151.951 0.556987 152.147 0.59623 152.343 0.674717C152.539 0.753204 152.736 0.792447 152.932 0.792447C153.246 0.753204 153.403 0.792447 153.403 0.910177C153.442 1.02791 153.52 1.08677 153.638 1.08677C153.952 0.969042 154.168 0.969042 154.286 1.08677C154.403 1.16526 154.619 1.28299 154.933 1.43996C155.247 1.55769 155.581 1.69504 155.934 1.85202C156.287 2.00899 156.601 2.16596 156.876 2.32293C157.15 2.44066 157.288 2.55839 157.288 2.67612C157.405 3.30402 157.445 3.97115 157.405 4.67753C157.366 5.38391 157.347 6.05105 157.347 6.67894C157.347 7.22834 157.366 7.77775 157.405 8.32716C157.445 8.87656 157.464 9.42597 157.464 9.97537C157.464 10.2893 157.464 10.6033 157.464 10.9172C157.464 11.2312 157.484 11.5255 157.523 11.8002C157.562 11.9964 157.582 12.173 157.582 12.33C157.582 12.4477 157.582 12.5851 157.582 12.742C157.582 12.9382 157.621 13.1933 157.7 13.5073C157.661 13.7035 157.641 13.9193 157.641 14.1548C157.641 14.351 157.641 14.5472 157.641 14.7434C157.641 15.2928 157.661 15.8619 157.7 16.4505C157.739 17.0392 157.759 17.6278 157.759 18.2165C157.759 18.6089 157.719 18.9817 157.641 19.3349C157.602 19.6881 157.582 20.0413 157.582 20.3945L157.641 21.5129C157.641 21.9053 157.661 22.2978 157.7 22.6902C157.739 23.0826 157.759 23.4947 157.759 23.9264C157.759 24.1226 157.739 24.3188 157.7 24.515C157.7 24.7112 157.68 24.9074 157.641 25.1037C157.602 25.2999 157.582 25.5157 157.582 25.7512C157.582 25.9866 157.582 26.2025 157.582 26.3987C157.582 26.9481 157.602 27.4975 157.641 28.0469C157.68 28.5963 157.7 29.1457 157.7 29.6951C157.7 30.0483 157.68 30.4015 157.641 30.7547C157.641 31.0686 157.641 31.4022 157.641 31.7554C157.641 32.4618 157.661 33.1878 157.7 33.9334C157.778 34.679 157.818 35.405 157.818 36.1114C157.818 36.4253 157.778 36.7589 157.7 37.1121C157.621 37.4653 157.464 37.74 157.229 37.9362ZM189.075 2.91158C188.996 3.06856 188.957 3.22553 188.957 3.3825C188.996 3.53948 189.016 3.71607 189.016 3.91229C188.937 4.38321 188.937 4.61867 189.016 4.61867C189.094 4.61867 189.134 4.65791 189.134 4.7364L188.722 5.32505C188.722 5.56051 188.663 5.77634 188.545 5.97256C188.467 6.16878 188.447 6.40424 188.486 6.67894C188.368 6.87516 188.251 7.07137 188.133 7.26759C188.054 7.4638 187.917 7.66002 187.721 7.85624H186.956C186.524 7.85624 186.053 7.89548 185.543 7.97397C185.072 8.01321 184.601 8.03283 184.13 8.03283C184.052 8.03283 183.954 8.03283 183.836 8.03283C183.718 7.99359 183.6 7.97397 183.483 7.97397C183.404 7.97397 183.306 7.99359 183.188 8.03283C183.071 8.03283 182.933 8.03283 182.776 8.03283C182.188 8.03283 181.599 8.01321 181.01 7.97397C180.461 7.89548 179.872 7.85624 179.244 7.85624C179.087 7.85624 178.93 7.85624 178.773 7.85624C178.616 7.85624 178.44 7.87586 178.244 7.9151C178.204 8.58224 178.165 9.269 178.126 9.97537C178.126 10.6425 178.126 11.3293 178.126 12.0356C178.126 12.2319 178.106 12.4477 178.067 12.6832C178.028 12.8794 178.008 13.0756 178.008 13.2718C177.969 13.782 177.93 14.2725 177.89 14.7434C177.89 15.2144 177.89 15.7049 177.89 16.2151C177.89 17.3139 177.89 18.4127 177.89 19.5115C177.93 20.6103 177.969 21.7287 178.008 22.8668C178.047 23.4554 178.087 24.0245 178.126 24.5739C178.165 25.1233 178.185 25.6923 178.185 26.281C178.185 27.6152 178.165 28.9495 178.126 30.2838C178.087 31.5788 178.067 32.8934 178.067 34.2277C178.067 34.6594 178.047 35.0715 178.008 35.4639C177.969 35.8171 177.949 36.2095 177.949 36.6412C177.949 37.5438 177.969 38.4464 178.008 39.349C178.047 40.2516 178.067 41.1542 178.067 42.0568C178.067 42.4884 178.047 42.9201 178.008 43.3518C178.008 43.7835 178.008 44.2151 178.008 44.6468C177.812 44.9608 177.675 45.2355 177.596 45.4709C177.518 45.7064 177.282 45.8241 176.89 45.8241C176.615 45.7456 176.478 45.6475 176.478 45.5298C176.517 45.4513 176.497 45.3728 176.419 45.2943C176.066 45.2551 175.791 45.2747 175.595 45.3532C175.438 45.4709 175.242 45.569 175.006 45.6475C174.888 45.6083 174.751 45.5886 174.594 45.5886C174.476 45.5886 174.359 45.5886 174.241 45.5886C174.162 45.5886 174.084 45.6083 174.005 45.6475C173.927 45.726 173.75 45.7652 173.476 45.7652C173.24 45.8045 173.103 45.7652 173.064 45.6475C173.024 45.5298 172.907 45.4709 172.71 45.4709C172.514 45.5886 172.279 45.6671 172.004 45.7064C171.769 45.7849 171.533 45.8241 171.298 45.8241C171.062 45.6671 170.944 45.5102 170.944 45.3532C170.984 45.2355 170.964 45.0981 170.886 44.9411C170.846 44.8626 170.768 44.7645 170.65 44.6468C170.572 44.4898 170.493 44.3721 170.415 44.2936C170.493 43.7442 170.552 43.2537 170.591 42.822C170.63 42.3903 170.65 41.9194 170.65 41.4092C170.65 40.3889 170.611 39.3882 170.532 38.4071C170.454 37.426 170.415 36.4253 170.415 35.405C170.415 35.0911 170.454 34.7575 170.532 34.4043C170.611 34.0511 170.65 33.6783 170.65 33.2859C170.572 32.9719 170.552 32.7953 170.591 32.7561C170.63 32.6776 170.65 32.5991 170.65 32.5206C170.65 32.2852 170.63 32.0497 170.591 31.8143C170.591 31.5788 170.591 31.3433 170.591 31.1079C170.591 30.637 170.591 30.166 170.591 29.6951C170.63 29.2242 170.65 28.7533 170.65 28.2824C170.65 28.0861 170.63 27.8899 170.591 27.6937C170.591 27.4583 170.591 27.2424 170.591 27.0462C170.552 26.693 170.532 26.3202 170.532 25.9278C170.572 25.5353 170.591 25.1429 170.591 24.7505C170.591 22.8668 170.552 21.0027 170.474 19.1583C170.434 17.3139 170.415 15.4498 170.415 13.5661C170.415 12.6635 170.454 11.7413 170.532 10.7995C170.65 9.85764 170.709 8.91581 170.709 7.97397C170.709 7.85624 170.67 7.69926 170.591 7.50305C170.513 7.30683 170.434 7.16948 170.356 7.09099C170.16 7.09099 169.963 7.09099 169.767 7.09099C169.61 7.05175 169.434 7.03213 169.237 7.03213C168.806 7.03213 168.394 7.09099 168.001 7.20872C167.256 7.24797 166.53 7.30683 165.823 7.38532C165.156 7.42456 164.469 7.4638 163.763 7.50305C163.292 7.4638 162.998 7.4638 162.88 7.50305C162.801 7.50305 162.703 7.50305 162.586 7.50305C162.272 7.50305 162.036 7.42456 161.879 7.26759V6.50234C161.644 6.03142 161.546 5.77634 161.585 5.7371C161.624 5.69786 161.644 5.63899 161.644 5.56051C161.644 5.44278 161.546 5.32505 161.349 5.20732C161.114 5.05034 160.996 4.81488 160.996 4.50094C160.957 4.18699 160.879 3.95153 160.761 3.79456C160.643 3.63758 160.584 3.48061 160.584 3.32364C160.584 3.04894 160.643 2.73499 160.761 2.3818C161.114 2.18558 161.448 2.04823 161.762 1.96975C162.115 1.89126 162.507 1.79315 162.939 1.67542C163.174 1.59693 163.39 1.51845 163.586 1.43996C163.783 1.36147 163.998 1.30261 164.234 1.26337C164.509 1.22412 164.783 1.2045 165.058 1.2045C165.333 1.2045 165.607 1.18488 165.882 1.14564C166.471 1.02791 167.079 0.929798 167.707 0.851312C168.374 0.772825 169.002 0.733582 169.591 0.733582C170.14 0.733582 170.689 0.812069 171.239 0.969042C171.788 1.08677 172.279 1.14564 172.71 1.14564C173.338 1.14564 173.927 1.18488 174.476 1.26337C175.065 1.34185 175.673 1.3811 176.301 1.3811C176.38 1.3811 176.497 1.42034 176.654 1.49883C176.851 1.53807 177.066 1.55769 177.302 1.55769H183.012C183.326 1.63618 183.542 1.6558 183.659 1.61656C183.816 1.57731 183.954 1.55769 184.071 1.55769C184.385 1.55769 184.68 1.57731 184.954 1.61656C185.229 1.6558 185.523 1.67542 185.837 1.67542C186.112 1.67542 186.328 1.6558 186.485 1.61656C186.799 1.6558 187.093 1.75391 187.368 1.91088C187.642 2.02861 187.956 2.08748 188.31 2.08748C188.467 2.2052 188.584 2.36218 188.663 2.55839C188.741 2.71537 188.879 2.8331 189.075 2.91158ZM216.27 37.9362C215.878 37.9755 215.643 37.9558 215.564 37.8773C215.407 37.9558 215.25 38.0343 215.093 38.1128C214.975 38.1913 214.838 38.2894 214.681 38.4071C214.132 38.6033 213.582 38.8584 213.033 39.1724C212.523 39.4863 211.993 39.7806 211.443 40.0553C211.13 40.2123 210.816 40.3497 210.502 40.4674C210.227 40.5459 209.933 40.6636 209.619 40.8206C209.148 41.0561 208.677 41.3111 208.206 41.5858C207.735 41.8213 207.244 42.0371 206.734 42.2333C206.46 42.3118 206.185 42.3903 205.91 42.4688C205.675 42.5473 205.42 42.6258 205.145 42.7043C204.831 42.822 204.537 42.9593 204.262 43.1163C204.027 43.2341 203.771 43.3518 203.497 43.4695C203.301 43.548 203.085 43.6265 202.849 43.705C202.653 43.7442 202.437 43.8227 202.202 43.9404C202.005 44.0189 201.829 44.117 201.672 44.2348C201.554 44.3525 201.397 44.4506 201.201 44.5291C200.887 44.6468 200.553 44.7645 200.2 44.8823C199.886 45 199.572 45.1374 199.258 45.2943C198.944 45.4513 198.709 45.5886 198.552 45.7064C198.434 45.8634 198.179 46.0007 197.787 46.1184C197.394 46.3539 197.179 46.4716 197.139 46.4716C197.1 46.5109 197.041 46.5305 196.963 46.5305C196.845 46.609 196.727 46.6678 196.61 46.7071C196.531 46.7856 196.433 46.8641 196.315 46.9425C196.08 46.9425 195.844 46.9622 195.609 47.0014C195.373 47.0407 195.138 47.0603 194.902 47.0603C194.628 46.9033 194.432 46.7463 194.314 46.5894C194.235 46.4324 194.196 46.2165 194.196 45.9418C194.039 45.7456 193.882 45.5298 193.725 45.2943C193.607 45.0589 193.47 44.843 193.313 44.6468C193.038 44.8038 192.862 44.8038 192.783 44.6468C192.744 44.4506 192.705 44.2544 192.666 44.0582C192.626 43.8227 192.587 43.6069 192.548 43.4106C192.509 43.1752 192.469 43.0182 192.43 42.9397C192.234 42.1941 192.136 41.6447 192.136 41.2915C192.136 41.0953 192.175 40.9776 192.254 40.9383C192.332 40.8598 192.371 40.7617 192.371 40.644C192.41 40.2516 192.45 39.8003 192.489 39.2901C192.528 38.7799 192.548 38.2502 192.548 37.7008C192.548 37.1513 192.548 36.6019 192.548 36.0525C192.548 35.5031 192.548 35.0126 192.548 34.5809C192.548 32.815 192.528 31.1079 192.489 29.4597C192.45 27.7722 192.43 26.0847 192.43 24.3973C192.43 23.6124 192.45 22.8275 192.489 22.0427C192.528 21.2578 192.548 20.473 192.548 19.6881C192.548 17.7652 192.567 15.8619 192.607 13.9782C192.685 12.0945 192.724 10.1912 192.724 8.26829C192.724 7.48343 192.685 6.69856 192.607 5.91369C192.528 5.08959 192.469 4.26548 192.43 3.44137C192.391 3.00969 192.41 2.67612 192.489 2.44066C192.567 2.16596 192.587 1.89126 192.548 1.61656C192.666 1.57731 192.881 1.55769 193.195 1.55769C193.509 1.55769 193.823 1.55769 194.137 1.55769C194.49 1.51845 194.804 1.49883 195.079 1.49883C195.393 1.45958 195.589 1.42034 195.668 1.3811C195.942 1.57731 196.217 1.67542 196.492 1.67542C196.766 1.67542 197.022 1.55769 197.257 1.32223C197.453 1.40072 197.551 1.45958 197.551 1.49883C197.591 1.53807 197.708 1.55769 197.905 1.55769C198.258 1.51845 198.532 1.49883 198.729 1.49883C198.925 1.45958 199.101 1.43996 199.258 1.43996C199.69 1.75391 199.945 2.14634 200.024 2.61726C200.141 3.04894 200.22 3.51985 200.259 4.03002C200.298 4.50094 200.318 4.99148 200.318 5.50164C200.357 5.97256 200.377 6.36499 200.377 6.67894C200.377 6.9144 200.396 7.16948 200.436 7.44418C200.475 7.67964 200.495 7.93472 200.495 8.20943C200.495 8.40564 200.475 8.60186 200.436 8.79808C200.436 8.99429 200.436 9.19051 200.436 9.38672C200.436 10.5248 200.436 11.6825 200.436 12.8598C200.475 14.0371 200.495 15.1947 200.495 16.3328C200.495 18.3734 200.455 20.4337 200.377 22.5136C200.338 24.5543 200.318 26.5949 200.318 28.6356C200.318 29.0672 200.338 29.4989 200.377 29.9306C200.416 30.3623 200.436 30.7939 200.436 31.2256C200.436 31.4611 200.416 31.6965 200.377 31.932C200.377 32.1674 200.377 32.4029 200.377 32.6384C200.377 34.0904 200.436 35.5424 200.553 36.9944C200.71 36.9551 201.044 36.857 201.554 36.7C202.064 36.5038 202.594 36.3076 203.144 36.1114C203.693 35.8759 204.203 35.6601 204.674 35.4639C205.145 35.2284 205.439 35.0518 205.557 34.9341C205.714 34.9341 205.93 34.8752 206.205 34.7575C206.479 34.6398 206.774 34.5024 207.087 34.3454C207.401 34.1492 207.696 33.9726 207.97 33.8157C208.284 33.6587 208.5 33.5213 208.618 33.4036C208.579 32.6187 208.559 31.8339 208.559 31.049C208.559 30.2249 208.559 29.4204 208.559 28.6356C208.559 26.4772 208.579 24.3188 208.618 22.1604C208.696 20.002 208.736 17.8044 208.736 15.5675C208.736 14.194 208.716 12.8205 208.677 11.447C208.638 10.0735 208.618 8.69997 208.618 7.32645C208.618 6.89478 208.618 6.4631 208.618 6.03142C208.657 5.56051 208.677 5.10921 208.677 4.67753C208.677 4.0104 208.657 3.36288 208.618 2.73499C208.618 2.06785 208.657 1.40072 208.736 0.733582C209.128 0.537366 209.344 0.439257 209.383 0.439257C209.619 0.439257 209.776 0.439257 209.854 0.439257C209.972 0.439257 210.07 0.478501 210.148 0.556987C210.266 0.59623 210.364 0.615852 210.443 0.615852C210.561 0.576609 210.678 0.556987 210.796 0.556987C210.992 0.556987 211.188 0.59623 211.385 0.674717C211.581 0.753204 211.777 0.792447 211.973 0.792447C212.287 0.753204 212.444 0.792447 212.444 0.910177C212.483 1.02791 212.562 1.08677 212.68 1.08677C212.994 0.969042 213.209 0.969042 213.327 1.08677C213.445 1.16526 213.661 1.28299 213.975 1.43996C214.289 1.55769 214.622 1.69504 214.975 1.85202C215.329 2.00899 215.643 2.16596 215.917 2.32293C216.192 2.44066 216.329 2.55839 216.329 2.67612C216.447 3.30402 216.486 3.97115 216.447 4.67753C216.408 5.38391 216.388 6.05105 216.388 6.67894C216.388 7.22834 216.408 7.77775 216.447 8.32716C216.486 8.87656 216.506 9.42597 216.506 9.97537C216.506 10.2893 216.506 10.6033 216.506 10.9172C216.506 11.2312 216.525 11.5255 216.565 11.8002C216.604 11.9964 216.624 12.173 216.624 12.33C216.624 12.4477 216.624 12.5851 216.624 12.742C216.624 12.9382 216.663 13.1933 216.741 13.5073C216.702 13.7035 216.682 13.9193 216.682 14.1548C216.682 14.351 216.682 14.5472 216.682 14.7434C216.682 15.2928 216.702 15.8619 216.741 16.4505C216.781 17.0392 216.8 17.6278 216.8 18.2165C216.8 18.6089 216.761 18.9817 216.682 19.3349C216.643 19.6881 216.624 20.0413 216.624 20.3945L216.682 21.5129C216.682 21.9053 216.702 22.2978 216.741 22.6902C216.781 23.0826 216.8 23.4947 216.8 23.9264C216.8 24.1226 216.781 24.3188 216.741 24.515C216.741 24.7112 216.722 24.9074 216.682 25.1037C216.643 25.2999 216.624 25.5157 216.624 25.7512C216.624 25.9866 216.624 26.2025 216.624 26.3987C216.624 26.9481 216.643 27.4975 216.682 28.0469C216.722 28.5963 216.741 29.1457 216.741 29.6951C216.741 30.0483 216.722 30.4015 216.682 30.7547C216.682 31.0686 216.682 31.4022 216.682 31.7554C216.682 32.4618 216.702 33.1878 216.741 33.9334C216.82 34.679 216.859 35.405 216.859 36.1114C216.859 36.4253 216.82 36.7589 216.741 37.1121C216.663 37.4653 216.506 37.74 216.27 37.9362ZM249.882 16.6271C249.529 17.3727 249.039 18.0791 248.411 18.7462C247.822 19.4134 247.253 20.0413 246.704 20.6299C246.272 21.0616 245.899 21.5325 245.585 22.0427C245.271 22.5528 244.918 23.0238 244.526 23.4554C244.212 23.8086 243.898 24.1422 243.584 24.4561C243.27 24.7308 242.975 25.0448 242.701 25.398C242.505 25.555 242.308 25.7119 242.112 25.8689C241.955 26.0259 241.798 26.2221 241.641 26.4576C242.23 27.7133 242.917 28.8514 243.701 29.8717C244.526 30.892 245.369 31.9124 246.233 32.9327C246.664 33.4429 247.096 33.9334 247.528 34.4043C247.959 34.836 248.332 35.3069 248.646 35.8171C248.921 36.4057 249.196 36.857 249.47 37.171C249.784 37.4457 250.059 37.74 250.294 38.0539C250.53 38.4464 250.726 38.7996 250.883 39.1135C251.079 39.3882 251.334 39.6629 251.648 39.9376C251.648 40.1338 251.766 40.33 252.001 40.5263C252.237 40.6832 252.394 40.8598 252.472 41.0561C252.472 41.2523 252.472 41.4092 252.472 41.527C252.512 41.6447 252.531 41.7428 252.531 41.8213C252.413 42.1352 252.198 42.4099 251.884 42.6454C251.609 42.8416 251.354 43.0575 251.118 43.2929C250.726 43.2929 250.392 43.4106 250.118 43.6461C249.843 43.8816 249.47 43.9993 248.999 43.9993C248.803 44.1563 248.646 44.3329 248.528 44.5291C248.411 44.6861 248.254 44.843 248.057 45C247.744 45 247.449 45.0785 247.174 45.2355C246.939 45.4317 246.664 45.569 246.35 45.6475C245.958 45.4121 245.644 45.1177 245.409 44.7645C245.173 44.3721 244.859 44.0778 244.467 43.8816C244.427 43.6854 244.349 43.5284 244.231 43.4106C244.153 43.2537 244.074 43.0967 243.996 42.9397C243.329 42.1941 242.701 41.4092 242.112 40.5851C241.523 39.761 240.935 38.9369 240.346 38.1128C240.032 37.7596 239.699 37.426 239.345 37.1121C239.032 36.7589 238.718 36.3861 238.404 35.9937C238.207 35.7582 238.011 35.4835 237.815 35.1696C237.619 34.8556 237.403 34.5613 237.167 34.2866C236.893 34.0511 236.657 33.7764 236.461 33.4625C236.265 33.1485 236.029 32.8934 235.755 32.6972C235.402 32.8934 235.088 33.1485 234.813 33.4625C234.538 33.7764 234.224 34.0511 233.871 34.2866C233.557 34.5613 233.243 34.836 232.929 35.1107C232.654 35.3854 232.36 35.6405 232.046 35.8759C231.968 36.7785 231.928 37.6615 231.928 38.5249C231.928 39.349 231.928 40.1731 231.928 40.9972C231.928 41.6643 231.909 42.3118 231.87 42.9397C231.87 43.5284 231.791 44.1366 231.634 44.7645C231.438 44.8038 231.242 44.7057 231.046 44.4702C230.889 44.1955 230.712 44.0385 230.516 43.9993C230.359 44.0385 230.221 44.117 230.104 44.2348C230.025 44.3525 229.888 44.3721 229.692 44.2936C229.495 44.4898 229.201 44.6664 228.809 44.8234C228.612 44.8234 228.397 44.8626 228.161 44.9411C227.926 44.9804 227.71 45 227.514 45C227.2 45 226.984 44.9608 226.866 44.8823C226.474 45.157 226.14 45.2943 225.865 45.2943C225.63 45.3336 225.434 45.3532 225.277 45.3532C225.198 45.0785 225.12 44.8234 225.041 44.5879C224.963 44.3132 224.904 44.0189 224.865 43.705C224.747 43.548 224.649 43.3714 224.57 43.1752C224.531 42.979 224.472 42.7828 224.394 42.5865C224.433 42.4688 224.453 42.3315 224.453 42.1745C224.453 42.0175 224.453 41.8605 224.453 41.7036C224.453 41.0364 224.433 40.3889 224.394 39.761C224.355 39.1331 224.374 38.4856 224.453 37.8185C224.374 37.6223 224.315 37.426 224.276 37.2298C224.237 37.0336 224.217 36.8374 224.217 36.6412C224.217 36.5235 224.217 36.3861 224.217 36.2291C224.256 36.0722 224.315 35.9544 224.394 35.8759C224.276 35.3658 224.198 34.836 224.158 34.2866C224.158 33.6979 224.158 33.1485 224.158 32.6384C224.158 32.3637 224.178 32.089 224.217 31.8143C224.296 31.5003 224.335 31.1864 224.335 30.8724C224.335 30.2053 224.296 29.5578 224.217 28.9299C224.139 28.302 224.099 27.6741 224.099 27.0462C224.139 26.6145 224.158 26.281 224.158 26.0455C224.158 25.81 224.178 25.5746 224.217 25.3391C224.256 25.1037 224.237 24.8682 224.158 24.6327C224.198 24.4365 224.237 24.2992 224.276 24.2207C224.355 24.103 224.394 23.946 224.394 23.7498C224.394 23.2396 224.394 22.7491 224.394 22.2781C224.433 21.768 224.453 21.2382 224.453 20.6888C224.453 20.2964 224.453 19.9235 224.453 19.5704C224.492 19.1779 224.511 18.7659 224.511 18.3342C224.511 17.981 224.531 17.6474 224.57 17.3335C224.649 17.0195 224.708 16.7056 224.747 16.3917C224.786 16.0385 224.806 15.7049 224.806 15.3909C224.806 15.0378 224.806 14.7042 224.806 14.3902C224.806 13.5661 224.806 12.742 224.806 11.9179C224.806 11.0546 224.767 10.2108 224.688 9.38672C224.649 9.19051 224.61 8.97467 224.57 8.73921C224.531 8.50375 224.511 8.26829 224.511 8.03283C224.433 7.28721 224.374 6.52197 224.335 5.7371C224.296 4.95223 224.217 4.16737 224.099 3.3825C224.178 3.26477 224.217 3.14704 224.217 3.02931C224.217 2.87234 224.217 2.73499 224.217 2.61726C224.217 2.42104 224.217 2.24445 224.217 2.08748C224.217 1.89126 224.198 1.69504 224.158 1.49883C224.237 1.42034 224.315 1.34185 224.394 1.26337C224.472 1.14564 224.551 1.04753 224.629 0.969042C224.865 0.969042 225.1 0.988663 225.336 1.02791C225.61 1.02791 225.846 1.10639 226.042 1.26337C226.238 1.18488 226.454 1.10639 226.689 1.02791C226.964 0.910177 227.2 0.851312 227.396 0.851312C227.71 0.851312 227.945 0.929798 228.102 1.08677C228.298 1.00828 228.397 0.929798 228.397 0.851312C228.436 0.733582 228.593 0.674717 228.868 0.674717C229.378 0.635474 229.731 0.615852 229.927 0.615852C230.163 0.615852 230.378 0.59623 230.575 0.556987C230.692 0.635474 230.79 0.733582 230.869 0.851312C230.947 0.969042 231.026 1.08677 231.104 1.2045C231.968 1.51845 232.654 1.96975 233.165 2.55839C233.714 3.1078 234.322 3.57872 234.989 3.97115C235.146 4.08888 235.303 4.18699 235.46 4.26548C235.617 4.34396 235.774 4.42245 235.931 4.50094C236.284 4.7364 236.638 4.99148 236.991 5.26618C237.344 5.54088 237.717 5.77634 238.109 5.97256C238.502 6.16878 238.718 6.28651 238.757 6.32575C238.835 6.32575 238.894 6.36499 238.933 6.44348C239.797 6.75743 240.562 7.1891 241.229 7.73851C241.936 8.24867 242.681 8.71959 243.466 9.15127C243.741 9.30824 244.074 9.46521 244.467 9.62218C244.898 9.77916 245.31 9.95575 245.703 10.152C246.135 10.3089 246.527 10.4855 246.88 10.6818C247.273 10.878 247.567 11.0938 247.763 11.3293C248.195 11.7609 248.568 12.0749 248.882 12.2711C249.235 12.4281 249.568 12.6243 249.882 12.8598L249.941 14.4491C249.941 14.7238 249.902 14.9789 249.823 15.2144C249.784 15.4498 249.765 15.7049 249.765 15.9796C249.765 16.1758 249.804 16.3917 249.882 16.6271ZM241.818 15.0966C241.386 14.8612 240.954 14.6453 240.523 14.4491C240.091 14.2136 239.718 13.8997 239.404 13.5073C239.13 13.4288 238.639 13.2522 237.933 12.9775C237.226 12.6635 236.5 12.3496 235.755 12.0356C235.048 11.6825 234.381 11.3881 233.753 11.1527C233.165 10.878 232.831 10.7406 232.753 10.7406C232.635 10.7799 232.576 11.0349 232.576 11.5059C232.576 11.9768 232.576 12.4869 232.576 13.0363C232.576 13.5858 232.576 14.1155 232.576 14.6257C232.576 15.1359 232.576 15.4498 232.576 15.5675C232.576 16.3132 232.556 17.0392 232.517 17.7455C232.478 18.4519 232.419 19.1779 232.341 19.9235C232.262 20.0413 232.203 20.159 232.164 20.2767C232.125 20.3552 232.085 20.4533 232.046 20.5711C231.968 21.1205 231.928 21.8465 231.928 22.7491C231.928 23.6517 231.928 24.3777 231.928 24.9271C231.928 25.2018 231.928 25.4568 231.928 25.6923C231.928 25.9278 231.948 26.2025 231.987 26.5164C232.184 26.5164 232.321 26.4772 232.399 26.3987C232.478 26.281 232.615 26.1828 232.811 26.1044C233.322 25.555 233.832 25.0252 234.342 24.515C234.852 24.0048 235.382 23.4751 235.931 22.9257C236.167 22.6902 236.402 22.4351 236.638 22.1604C236.873 21.8857 237.128 21.6502 237.403 21.454C237.599 21.2186 237.776 21.0027 237.933 20.8065C238.09 20.5711 238.266 20.3552 238.462 20.159C239.012 19.5704 239.581 19.0013 240.17 18.4519C240.758 17.8633 241.249 17.2158 241.641 16.5094C241.916 16.3132 242.171 15.9992 242.406 15.5675C242.132 15.5283 241.936 15.3713 241.818 15.0966ZM284.142 21.6306C284.063 21.7876 283.985 21.9446 283.906 22.1015C283.828 22.2193 283.769 22.3566 283.73 22.5136C283.887 22.6706 284.024 22.8472 284.142 23.0434C284.299 23.2004 284.377 23.377 284.377 23.5732C284.377 23.7301 284.338 23.8871 284.259 24.0441C284.22 24.1618 284.22 24.2795 284.259 24.3973C284.102 24.672 283.926 24.9271 283.73 25.1625C283.573 25.398 283.455 25.6531 283.376 25.9278C283.219 26.0847 283.082 26.2417 282.964 26.3987C282.886 26.5557 282.807 26.7126 282.729 26.8696C282.533 26.9481 282.395 27.0854 282.317 27.2817C282.278 27.4386 282.179 27.576 282.023 27.6937C281.983 27.8507 281.787 28.2235 281.434 28.8121C281.081 29.4008 280.688 30.0287 280.257 30.6958C279.825 31.363 279.413 32.0105 279.02 32.6384C278.628 33.2663 278.353 33.6783 278.196 33.8745C278.118 34.0707 278.02 34.2277 277.902 34.3454C277.823 34.4632 277.725 34.6005 277.608 34.7575C277.529 34.8752 277.47 35.0126 277.431 35.1696C277.392 35.2873 277.333 35.3854 277.254 35.4639C277.176 35.6209 277.078 35.7582 276.96 35.8759C276.882 35.9937 276.803 36.1506 276.725 36.3469C276.332 36.857 275.94 37.4653 275.547 38.1717C275.155 38.878 274.782 39.5059 274.429 40.0553C274.233 40.3693 274.037 40.6832 273.84 40.9972C273.683 41.3111 273.507 41.6251 273.311 41.939C273.114 42.253 272.918 42.5473 272.722 42.822C272.526 43.0967 272.329 43.391 272.133 43.705C271.819 43.9404 271.545 44.2348 271.309 44.5879C271.074 44.9019 270.799 45.1766 270.485 45.4121C269.975 45.4121 269.661 45.1766 269.543 44.7057C269.033 44.5879 268.778 44.5879 268.778 44.7057C268.778 44.8234 268.778 44.9215 268.778 45C268.621 45.0785 268.503 45.1962 268.425 45.3532C268.385 45.5102 268.287 45.6279 268.13 45.7064C267.816 45.6279 267.542 45.4905 267.306 45.2943C267.11 45.1374 266.816 45.0785 266.423 45.1177C266.266 44.8823 266.09 44.6861 265.894 44.5291C265.697 44.3329 265.521 44.1366 265.364 43.9404C265.285 43.705 265.168 43.5088 265.011 43.3518C264.893 43.1948 264.775 43.0378 264.657 42.8809C264.54 42.6846 264.422 42.5081 264.304 42.3511C264.186 42.1941 264.069 42.0371 263.951 41.8802C263.676 41.527 263.402 41.1934 263.127 40.8795C262.891 40.5263 262.676 40.1731 262.479 39.8199C262.165 39.349 261.851 38.878 261.538 38.4071C261.263 37.897 260.969 37.4064 260.655 36.9355C260.498 36.7 260.341 36.4646 260.184 36.2291C260.027 35.9937 259.889 35.7582 259.772 35.5227C259.693 35.3265 259.575 35.0911 259.418 34.8164C259.301 34.5417 259.144 34.3651 258.947 34.2866C258.869 33.9726 258.732 33.7372 258.535 33.5802C258.339 33.4232 258.143 33.227 257.947 32.9916C257.672 32.6776 257.417 32.344 257.182 31.9909C256.946 31.5984 256.711 31.206 256.475 30.8136C255.69 29.7147 254.945 28.6356 254.238 27.576C253.571 26.5164 252.904 25.4176 252.237 24.2795C252.433 23.6517 252.531 23.1807 252.531 22.8668C252.531 22.5528 252.629 22.2978 252.826 22.1015C252.826 21.9446 252.865 21.7091 252.943 21.3952C253.453 20.5318 253.944 19.747 254.415 19.0406C254.847 18.3734 255.141 17.824 255.298 17.3924C255.494 16.9607 255.69 16.5094 255.887 16.0385C256.083 15.9207 256.24 15.7834 256.357 15.6264C256.475 15.4302 256.632 15.2536 256.828 15.0966C256.907 14.6649 257.083 14.3118 257.358 14.0371C257.633 13.7231 257.809 13.3503 257.888 12.9186C258.241 12.6439 258.437 12.33 258.477 11.9768C258.987 11.6236 259.301 11.1527 259.418 10.564C259.732 10.2501 259.987 9.89689 260.184 9.50445C260.419 9.11202 260.635 8.69997 260.831 8.26829C261.302 7.87586 261.675 7.3657 261.95 6.7378C262.185 6.58083 262.362 6.36499 262.479 6.09029C262.597 5.81559 262.754 5.58013 262.95 5.38391C263.264 4.87375 263.5 4.46169 263.657 4.14775C263.853 3.79456 264.049 3.44137 264.245 3.08818C264.52 3.08818 264.697 2.99007 264.775 2.79385C264.854 2.59764 265.011 2.51915 265.246 2.55839C265.246 2.2052 265.344 1.89126 265.54 1.61656C265.619 1.57731 265.737 1.53807 265.894 1.49883C266.051 1.42034 266.129 1.34185 266.129 1.26337C266.051 0.792447 266.07 0.517744 266.188 0.439257C266.306 0.360771 266.404 0.282284 266.482 0.203798C266.914 0.282284 267.208 0.341149 267.365 0.380392C267.522 0.419636 267.777 0.556987 268.13 0.792447C268.523 0.792447 268.798 0.870933 268.955 1.02791C269.111 1.18488 269.288 1.30261 269.484 1.3811C269.641 1.53807 269.759 1.69504 269.837 1.85202C269.955 2.00899 270.112 2.12672 270.308 2.2052C270.622 2.63688 270.956 3.1078 271.309 3.61796C271.662 4.12813 271.996 4.59904 272.31 5.03072C272.741 5.61937 273.173 6.1884 273.605 6.7378C274.076 7.24797 274.507 7.81699 274.9 8.44489C275.018 8.6411 275.233 8.99429 275.547 9.50445C275.861 9.97537 276.215 10.4855 276.607 11.0349C276.999 11.5843 277.353 12.0945 277.667 12.5654C277.98 12.9971 278.196 13.2522 278.314 13.3307C278.432 13.5269 278.687 13.8997 279.079 14.4491C279.472 14.9985 279.884 15.5872 280.315 16.2151C280.786 16.8037 281.238 17.3727 281.669 17.9221C282.101 18.4715 282.395 18.8247 282.552 18.9817C282.984 19.5704 283.298 20.0609 283.494 20.4533C283.73 20.8065 283.945 21.199 284.142 21.6306ZM270.662 32.6972C271.093 32.1086 271.427 31.5788 271.662 31.1079C271.898 30.637 272.133 30.166 272.369 29.6951C272.761 29.2242 272.997 28.8906 273.075 28.6944C273.154 28.4982 273.252 28.302 273.369 28.1058C273.683 27.6348 273.997 27.1639 274.311 26.693C274.664 26.2221 274.939 25.7119 275.135 25.1625C275.371 25.0055 275.547 24.8093 275.665 24.5739C275.783 24.3384 275.959 24.1226 276.195 23.9264C275.959 23.1023 275.685 22.4744 275.371 22.0427C275.057 21.5718 274.743 21.1205 274.429 20.6888C274.311 20.4926 274.193 20.2964 274.076 20.1001C273.958 19.9039 273.84 19.7077 273.723 19.5115C273.566 19.3938 273.428 19.276 273.311 19.1583C273.232 19.0406 273.134 18.9228 273.016 18.8051C272.938 18.6089 272.82 18.3538 272.663 18.0399C272.506 17.8437 272.349 17.6671 272.192 17.5101C272.035 17.3531 271.898 17.1569 271.78 16.9214C271.623 16.7645 271.427 16.5486 271.191 16.2739C270.956 15.9992 270.701 15.7049 270.426 15.3909C270.191 15.0378 269.975 14.7238 269.779 14.4491C269.582 14.1352 269.425 13.8801 269.308 13.6839C269.229 13.4876 269.151 13.3307 269.072 13.2129C269.033 13.056 268.974 12.899 268.896 12.742C268.699 12.4673 268.503 12.2319 268.307 12.0356C268.111 11.8002 267.915 11.5451 267.718 11.2704C267.601 11.3489 267.483 11.4078 267.365 11.447C267.287 11.447 267.208 11.4862 267.13 11.5647C266.855 12.0749 266.541 12.5458 266.188 12.9775C265.874 13.4092 265.56 13.8801 265.246 14.3902C264.971 14.8612 264.697 15.3517 264.422 15.8619C264.147 16.3328 263.873 16.8037 263.598 17.2746C263.402 17.5493 263.205 17.824 263.009 18.0987C262.852 18.3342 262.676 18.6089 262.479 18.9228C262.283 19.1975 262.107 19.4919 261.95 19.8058C261.832 20.0805 261.675 20.3552 261.479 20.6299C261.165 21.0224 260.91 21.3755 260.713 21.6895C260.517 22.0034 260.321 22.3763 260.125 22.8079C260.243 23.0434 260.419 23.377 260.655 23.8086C260.929 24.2011 261.204 24.6131 261.479 25.0448C261.753 25.4372 261.989 25.81 262.185 26.1632C262.421 26.5164 262.558 26.7519 262.597 26.8696C262.911 27.1443 263.166 27.4583 263.362 27.8114C263.559 28.1254 263.814 28.4393 264.128 28.7533C264.285 29.0672 264.461 29.3419 264.657 29.5774C264.854 29.8129 265.05 30.0679 265.246 30.3426C265.442 30.6173 265.697 31.0294 266.011 31.5788C266.325 32.089 266.639 32.6187 266.953 33.1682C267.267 33.7176 267.581 34.2277 267.895 34.6986C268.209 35.1696 268.464 35.4639 268.66 35.5816C269.053 35.1499 269.367 34.679 269.602 34.1689C269.877 33.6194 270.23 33.1289 270.662 32.6972Z" fill="black"/>
</svg>
