<svg width="1385" height="133" viewBox="0 0 1385 133" fill="none" xmlns="http://www.w3.org/2000/svg">
<path d="M1 79L1384 69" stroke="black" stroke-width="3"/>
<path d="M184 79.4416C183.968 83.8598 187.523 87.4675 191.942 87.4998C196.36 87.532 199.968 83.9765 200 79.5584C200.032 75.1402 196.477 71.5325 192.058 71.5002C187.64 71.468 184.032 75.0234 184 79.4416ZM192.5 11L183.73 25.9364L201.051 26.0628L192.5 11ZM193.5 79.5109L193.901 24.5106L190.902 24.4887L190.5 79.489L193.5 79.5109Z" fill="black"/>
<path d="M1215 68.4416C1214.97 72.8598 1218.52 76.4675 1222.94 76.4998C1227.36 76.532 1230.97 72.9765 1231 68.5584C1231.03 64.1402 1227.48 60.5325 1223.06 60.5002C1218.64 60.468 1215.03 64.0234 1215 68.4416ZM1223.5 0L1214.73 14.9364L1232.05 15.0628L1223.5 0ZM1224.5 68.5109L1224.9 13.5106L1221.9 13.4887L1221.5 68.489L1224.5 68.5109Z" fill="black"/>
<path d="M716 74C716 69.5817 712.418 66 708 66C703.582 66 700 69.5817 700 74C700 78.4183 703.582 82 708 82C712.418 82 716 78.4183 716 74ZM708 133L716.66 118L699.34 118L708 133ZM706.5 74L706.5 119.5L709.5 119.5L709.5 74L706.5 74Z" fill="black"/>
</svg>
